<svg class="svg-icon" style="width: 1em; height: 1em;vertical-align: middle;fill: currentColor;overflow: hidden;" viewBox="0 0 1024 1024" version="1.1" xmlns="http://www.w3.org/2000/svg"><path d="M768 184.32V128c0-30.72 20.48-51.2 51.2-51.2s51.2 20.48 51.2 51.2v204.8c0 30.72-20.48 51.2-51.2 51.2h-204.8c-30.72 0-51.2-20.48-51.2-51.2s20.48-51.2 51.2-51.2h112.64c-56.32-46.08-128-76.8-204.8-76.8C348.16 204.8 204.8 348.16 204.8 522.24c0 174.08 143.36 317.44 317.44 317.44 138.24 0 256-87.04 302.08-215.04 10.24-25.6 35.84-40.96 66.56-30.72 25.6 10.24 40.96 35.84 30.72 66.56-56.32 168.96-215.04 286.72-399.36 286.72-230.4 0-419.84-189.44-419.84-419.84C102.4 291.84 291.84 102.4 522.24 102.4c87.04 0 174.08 30.72 245.76 81.92z" fill="#000000" /></svg>